<svg id="Layer_1" data-name="Layer 1" xmlns="http://www.w3.org/2000/svg" xmlns:xlink="http://www.w3.org/1999/xlink" viewBox="0 0 400 300"><defs><linearGradient id="linear-gradient" x1="259.01" y1="146.67" x2="278.21" y2="134.09" gradientUnits="userSpaceOnUse"><stop offset="0" stop-color="#fff" stop-opacity="0"/><stop offset="1" stop-color="#006a42"/></linearGradient><linearGradient id="linear-gradient-2" x1="143.93" y1="240.32" x2="154.55" y2="224.49" xlink:href="#linear-gradient"/><linearGradient id="linear-gradient-3" x1="75.93" y1="245.98" x2="85.72" y2="232.05" xlink:href="#linear-gradient"/></defs><title>-</title><polygon points="242.29 103.78 361.62 171.93 166.01 284.86 47.05 218.27 242.29 103.78" fill="#b9e3b3"/><path d="M251.51,155.15l27.84-18.58-3.73-3.35L248.5,150C256.63,155.82,242.88,150.1,251.51,155.15Z" opacity="0.32" fill="url(#linear-gradient)"/><path d="M181.61,257.87l30.18-17-83.85-50.57L98.64,206.12C106.77,211.94,173,252.83,181.61,257.87Z" opacity="0.32" fill="url(#linear-gradient-2)"/><path d="M94.15,244l9.27-14.2L92,221.1l-22.31,9.83C77.8,236.75,85.52,239,94.15,244Z" opacity="0.32" fill="url(#linear-gradient-3)"/><polyline points="310.18 179.17 310.18 182.82 308.33 185.08" fill="#adcee1"/><path d="M236.83,134.73l71.26,44.16a4.42,4.42,0,0,1-.15,7.6L199.8,247.65a9.9,9.9,0,0,1-9.89-.08L119,205.87c-5.16-4.24-4.77-12.21,0-12.54l107.5-58.77A10,10,0,0,1,236.83,134.73Z" fill="#88d3d8"/><path d="M236.83,131.69l71.26,44.16a4.42,4.42,0,0,1-.15,7.6L199.8,244.61a9.9,9.9,0,0,1-9.89-.08L119,202.83a5.49,5.49,0,0,1,0-9.5l107.5-61.82A10,10,0,0,1,236.83,131.69Z" fill="#fff"/><path d="M233.92,125.65s-29.59-95.51-29.41-95.51-.92-4.24-6.21-1.85L84.74,95.14s-5.51,2.23-4.43,7.36S109.24,196,109.24,196a4.8,4.8,0,0,0,5.37,1.85C118.06,196.73,231.27,131,231.27,131A4.35,4.35,0,0,0,233.92,125.65Z" fill="#053855"/><polygon points="202.63 37.09 86.34 104.88 110.46 185.87 228.25 120.08 202.63 37.09" fill="#68e1fd"/><path d="M241.21,141.81,267.26,158a3.14,3.14,0,0,1-.11,5.4l-93.52,53.31a9.2,9.2,0,0,1-9.19,0c-6-3.5-16.36-9.82-22.7-13.7a3.82,3.82,0,0,1,.07-6.57c18.91-11,80.62-46.88,94.13-54.72A5.09,5.09,0,0,1,241.21,141.81Z" fill="#68e1fd"/><path d="M239.81,185.86l-32.67,18.37a3.26,3.26,0,0,0,0,5.66l19.21,11.24a4.34,4.34,0,0,0,4.34,0l33.43-19.06a2.73,2.73,0,0,0,0-4.74l-20-11.48A4.34,4.34,0,0,0,239.81,185.86Z" fill="#68e1fd"/><path d="M241.21,141.81,267.26,158a3.14,3.14,0,0,1-.11,5.4l-93.52,53.31a9.2,9.2,0,0,1-9.19,0c-6-3.5-16.36-9.82-22.7-13.7a3.82,3.82,0,0,1,.07-6.57c18.91-11,80.62-46.88,94.13-54.72A5.09,5.09,0,0,1,241.21,141.81Z" fill="#053855" opacity="0.1"/><path d="M239.81,185.86l-32.67,18.37a3.26,3.26,0,0,0,0,5.66l19.21,11.24a4.34,4.34,0,0,0,4.34,0l33.43-19.06a2.73,2.73,0,0,0,0-4.74l-20-11.48A4.34,4.34,0,0,0,239.81,185.86Z" fill="#053855" opacity="0.1"/><polyline points="126.84 111.97 138.6 144.49 191.23 114.32 179.93 81.12" fill="#ec487d"/><polygon points="126.84 111.97 164.56 113.77 179.93 81.12 126.84 111.97" fill="#f9847f"/><polyline points="200 74.83 217.22 100.63 254.67 66.36 233.34 34.72" fill="#ec487d"/><polygon points="200 74.83 224.44 72.72 233.34 34.72 200 74.83" fill="#f9847f"/><path d="M297.67,59.47s-19.36-1.23-20.6-.66-1.74,2.62-1.27,5.48,9.7,14.36,9.7,14.36" fill="#3bd2e2"/><path d="M303.36,65.68c-.06-.2-2-9.21-11-5.37-8.08,3.46-8.33,13.77-7.78,16.29.45,2.05,2.54,4.84,6.59,5.86" fill="#cc6c6d"/><ellipse cx="294.9" cy="71.5" rx="11.6" ry="8.25" transform="translate(112.07 313.68) rotate(-66.58)" fill="#f9847f"/><path d="M286.21,72,295,74.31l1.92-4.07L289,65.31A20.09,20.09,0,0,0,286.21,72Z" fill="#fff"/><ellipse cx="295.81" cy="72.22" rx="2.26" ry="1.82" transform="translate(97.41 303.21) rotate(-63.06)" fill="#f7d600"/><rect x="275.61" y="58.66" width="3.83" height="78.82" rx="1.92" ry="1.92" transform="translate(555.06 196.14) rotate(-180)" fill="#3bd2e2"/><path d="M313.63,60.18l-3.94,3.94a1.5,1.5,0,0,0,2.12,2.12l3.94-3.94A1.5,1.5,0,0,0,313.63,60.18Z" fill="#f7d600"/><path d="M321.67,71h-7.5a1.5,1.5,0,0,0,0,3h7.5A1.5,1.5,0,0,0,321.67,71Z" fill="#f7d600"/><path d="M314.74,82.16l-3.56-3.37c-1.4-1.33-3.53.79-2.12,2.12l3.56,3.37C314,85.61,316.15,83.49,314.74,82.16Z" fill="#f7d600"/><path d="M77.88,204.75s-2.11,25,11.22,29.4,20-8.36,19.48-30.38" fill="#06577a"/><ellipse cx="93.23" cy="204.26" rx="15.36" ry="8.88" transform="translate(-6.45 3.07) rotate(-1.82)" fill="#f2696a"/><path d="M96.54,184.39s-6.3-8.51-3.87-14.61c0,0,2-3.93,5.1-4.65,0,0,0,8.26,3,7.11s-.27-8.63-.27-8.63,3.09-4.47,6.62-4.45.25,7.71,2.66,6.38-.09-7.71,2.65-8.56a58.06,58.06,0,0,1,7.64-1.47s2.85,7.44.27,8.6-6.4,1.65-4.51,3.25,7.06-.47,7.06-.47.46,4.22-1.26,6.11-12.29-1.83-10.33,1.75,8.81,1.54,8.81,1.54-3.37,5.16-7.44,7.6S96.54,184.39,96.54,184.39Z" fill="#8ccc00"/><path d="M98.64,206.12s-4.49-4.16-3.75-7.88c0,0,.74-2.45,2.4-3.18,0,0,.86,4.69,2.46,3.72s-1.08-4.87-1.08-4.87,1.27-2.87,3.29-3.23,1,4.35,2.19,3.34-.87-4.37.59-5.14a33.54,33.54,0,0,1,4.18-1.65s2.41,3.92,1.07,4.85-3.46,1.62-2.21,2.32,4-1,4-1,.71,2.35-.06,3.6-7.17.27-5.68,2.1,5.17-.07,5.17-.07a16.35,16.35,0,0,1-3.42,5.11C105.69,205.93,98.64,206.12,98.64,206.12Z" fill="#8ccc00"/><path d="M82.34,197.35s-10.56.75-14.4-4.59c0,0-2.22-3.84-1.18-6.8,0,0,6.94,4.47,7.6,1.29s-7.43-4.41-7.43-4.41-2.11-5-.19-8,6.64,3.94,6.81,1.18S67,172,67.76,169.22A58.06,58.06,0,0,1,70.62,162s7.81,1.59,7.4,4.39-2.05,6.29.32,5.55,3.39-6.21,3.39-6.21,3.81,1.88,4.48,4.34-8.15,9.38-4.08,9.65,6-6.61,6-6.61,2.54,5.62,2.41,10.36S82.34,197.35,82.34,197.35Z" fill="#8ccc00"/><path d="M117.87,158.92q-1.64,1.48-3.29,3c.08-1.2.18-2.4.33-3.6.08-.63-.89-.87-1-.24q-.3,2.4-.42,4.82c-2.88,2.69-5.74,5.51-8.38,8.48a35.69,35.69,0,0,1-.38-6.1c0-.64-1-.61-1,0a36.71,36.71,0,0,0,.52,7,69.17,69.17,0,0,0-4.73,6.09,19.81,19.81,0,0,1-3.68-7.87c-.14-.63-1.09-.33-1,.3a20.49,20.49,0,0,0,4,8.34.51.51,0,0,0,.1.09c-4.2,6.37-7,13.45-7,21.56,0,.64,1,.61,1,0,0-7.8,2.68-14.65,6.71-20.81a38.56,38.56,0,0,0,12.42.81c.64-.06.61-1.06,0-1a37.78,37.78,0,0,1-11.8-.71,72.53,72.53,0,0,1,6.7-8.31l.09,0c2.34.13,4.68.27,7,.28a8.55,8.55,0,0,0,4.33-.64c.57-.31,0-1.15-.53-.85-1.59.86-3.86.51-5.59.46-1.48,0-3-.12-4.45-.2,3.45-3.64,7.16-7,10.75-10.29C119.08,159.17,118.35,158.49,117.87,158.92Z" fill="#06577a"/><path d="M87.52,179.36a.5.5,0,0,0-1-.24,17.71,17.71,0,0,1-6.12,9.42q-1.85-4.66-3.41-9.43a29.87,29.87,0,0,0,5.6-8.46c.26-.59-.62-1.07-.88-.48A29.1,29.1,0,0,1,76.65,178c-1.16-3.64-2.2-7.33-3.1-11.05-.15-.63-1.11-.33-1,.3q1.84,7.65,4.42,15.06a23.45,23.45,0,0,1-5.51-1.61c-.59-.25-1.07.62-.48.88a24.53,24.53,0,0,0,6.37,1.81h0c1.16,3.26,2.44,6.47,3.81,9.64a24.18,24.18,0,0,1-8.75-1.64c-.59-.23-1.08.65-.48.88A25.51,25.51,0,0,0,81.65,194q2.6,5.93,5.67,11.66c.31.57,1.15,0,.85-.53a156.06,156.06,0,0,1-7.35-15.64h0A18.81,18.81,0,0,0,87.52,179.36Z" fill="#06577a"/><path d="M106,191.71l-2.6,4.7a8.62,8.62,0,0,1-.92-1.41c-.3-.57-1.14,0-.85.53a9.53,9.53,0,0,0,1.21,1.78l0,0-2.82,5.09a2,2,0,0,1-.65-1.18c-.1-.63-1.1-.6-1,0a3.15,3.15,0,0,0,1.16,2l-3.53,6.37a.5.5,0,0,0,.88.48l4.65-8.4a7.47,7.47,0,0,0,2.42-.44c.6-.22.31-1.18-.3-1a6.65,6.65,0,0,1-1.54.34l4.71-8.51A.5.5,0,0,0,106,191.71Z" fill="#06577a"/><path d="M287.65,173.6s-1.13,5.44-3.69,8.64S270.44,193,267.73,194.1s-3.71,2-5.76,1.54-9.51-4.49-9.51-4.49" fill="#5dad49"/><path d="M256.38,173.6s7-8.62,13.07-10.37c0,0,13.69,4,18.2,10.37,0,0-15,10.78-25.68,22l-14.12-6.35" fill="#82ce72"/><path d="M284,164.37s-1.13,5.44-3.69,8.64-13.52,10.76-16.23,11.86-3.71,2-5.76,1.54-9.51-4.49-9.51-4.49" fill="#d66969"/><path d="M252.72,164.37s7-8.62,13.07-10.37c0,0,13.69,4,18.2,10.37,0,0-15,10.78-25.68,22l-14.12-6.35" fill="#ed8c8c"/><path d="M259.06,133.88c.49.24,4.55,7.54,1.22,9.25s-8.76-.31-8.45-2.1-1.85-3.53,1-7.81" fill="#3129a3"/><path d="M231.39,201.93s-1.38,2.64-2.44,3.33-6.58-.06-6.58,1.21,6.68,3.08,9,3.4a6.14,6.14,0,0,0,2.74-2.55,64.18,64.18,0,0,0,3.42-7.11" fill="#3129a3"/><path d="M225.74,197.85s-1.38,2.64-2.44,3.33-6.58-.06-6.58,1.21,6.68,3.08,9,3.4a6.14,6.14,0,0,0,2.74-2.55,64.18,64.18,0,0,0,3.42-7.11" fill="#3129a3"/><path d="M249.08,146.43S241.8,156.67,240,157.9c0,0,5.31,1.95,5.34,6,0,0,6.38-3.49,7.8-5.48S249.08,146.43,249.08,146.43Z" fill="#ffc36c"/><path d="M240.68,183.67c-1.61,4-3.21,8-4.89,11.94C237.8,192.12,240.12,187.43,240.68,183.67Z" fill="#d86044"/><path d="M257.46,157.76c-2.1-1.21-6.44-7.4-6.49.4,0,0-15.76,7.57-17.52,15.32-1.24,5.47-7.36,17.82-10.1,25a19.39,19.39,0,0,0,8,3.42c3.09-6.62,5.76-13.42,8.5-20.19a.77.77,0,0,1,.87-.47c0-.16,0-.33-.07-.48,0,0,11.4-.65,16.23-5.81C259.81,171.9,259.56,159,257.46,157.76Z" fill="#d86044"/><path d="M263.09,159.71c-2.1-1.21-9-6.44-9.1,1.36,0,0-11,5.93-12.79,13.67-1.49,6.54-10.57,23-11.74,28.28,2.23,1,3.59,2.11,6,2.24,2.3-2.91,11.29-13.65,16.64-23.56a45.83,45.83,0,0,0,11.42-8.45C266.4,170.17,265.19,160.92,263.09,159.71Z" fill="#ea7554"/><path d="M265.12,163.52s1.45-13.66-2-18.56-10.83-7.17-12.79-6.16-2.12,21.34,1,22.12A105.94,105.94,0,0,0,265.12,163.52Z" fill="#ffc36c"/><polyline points="246.89 173.96 255.71 169.34 240.94 158.62 232.67 161.43" fill="#3129a3"/><path d="M246.93,173.1c.17-.64-3.52-12.91-3.52-12.91l-17.16-10.9,4.72,14L246.89,174Z" fill="#68e1fd"/><path d="M258.81,146.87c.07.31,2.52,9.56-1.93,13.05a29.26,29.26,0,0,1-7.12,4.44s3.82,4.16,3.55,5.9c0,0,17-4.64,13.1-23.19" fill="#ffc36c"/><path d="M252,132.81s-1.3,8.49,2.49,10.09c2.77,1.17,4.56-2.43,4.95-4.63a7.39,7.39,0,0,0-2.88-6.87C254.79,130,252.45,130.22,252,132.81Z" fill="#ffac99"/><path d="M258.07,135.41s-.76-.37-1.08-.05.27,1.64-.79,1.7-3.89,0-5.57-2,.41-6.75,4.08-7.11,8.92,3.06,9.58,8.17.55,5.42,2.14,7,3.6,1.65,2.43,4.39-4.43,1.54-4.48,4-3.43,5-6.91,3a4.37,4.37,0,0,1-.51-7.54C259.29,145.23,260.1,137.43,258.07,135.41Z" fill="#3129a3"/><path d="M250.58,165.32s-3.72-.17-3.65.29,1.57,1.2,1.57,1.2S246,169,246,169.25s1.25,2.11,2.47,2.2,4.47-2.64,4.47-2.64A15.68,15.68,0,0,0,250.58,165.32Z" fill="#ffac99"/></svg>