<svg xmlns="http://www.w3.org/2000/svg" xmlns:xlink="http://www.w3.org/1999/xlink" viewBox="0 0 400 300"><defs><linearGradient id="linear-gradient" x1="237.64" y1="166.38" x2="193.48" y2="227" gradientUnits="userSpaceOnUse"><stop offset="0.01" stop-color="#88a80d"/><stop offset="1" stop-color="#fff"/></linearGradient><linearGradient id="linear-gradient-2" x1="76.34" y1="179.05" x2="56.9" y2="205.73" xlink:href="#linear-gradient"/></defs><title>101-110</title><g style="isolation:isolate"><g id="Layer_2" data-name="Layer 2"><path d="M206.24,274.89l149.75-84a7.16,7.16,0,0,0,.27-12.32L211.09,88.58a7.16,7.16,0,0,0-7.36-.11L45.33,180.41a7.16,7.16,0,0,0,0,12.38l141.25,82A19.84,19.84,0,0,0,206.24,274.89Z" fill="#b4ee73"/><path d="M214.95,171.33c-15.3,10.13-65.71,48.67-80.84,59,25.74,14.21,39.6,21.66,42.45,23.71l92.19-52.26Z" fill="url(#linear-gradient)" style="mix-blend-mode:multiply"/><path d="M136.49,154.23s1.92,17.64,12.93,21.69,26.22-11.55,26.22-11.55L152.3,147.19" fill="#56403d"/><path d="M164.73,106.15c-2-1.38-4.64-.91-7,0-9.54,3.94-23.33,11.75-23.17,25.69a156.14,156.14,0,0,0,1.9,22.34c.45,2.9.84,6.52,2.31,9,2.19,3.74,11.85-4.69,13.68-6.11,3.13-2.42,6.17-5,9.17-7.63,2.23-2,7.21-5.07,8.11-8.17a8.37,8.37,0,0,0,.23-2.15,140.19,140.19,0,0,0-.93-19.64C168.54,115.33,168.29,108.61,164.73,106.15Z" fill="#56403d"/><path d="M187.82,204.7c.53.74-.75,7.81,1.79,10s9.08,5.9,7.08,7.44c-5.88,4.54-19.24-7-19.24-7V202.89" fill="#ff666d"/><path d="M203,198.42c.53.74-.75,7.81,1.79,10s8.9,5.7,7.08,7.44c-4.88,4.67-21.06-5.45-21.06-5.45l1.82-13.8" fill="#ff666d"/><path d="M155.53,158.16s-.81,8.76,3.31,12.28,18.84,7.73,18.84,7.73-5,24.05-4.07,26.18,11.6,3.34,17.2,0c0,0,8.2,2.12,13.63-2.89,0,0,10.5-29.72,7.16-39.4s-21.68-12.43-21.68-12.43Z" fill="#ffe0de"/><polygon points="149.38 173.55 149.38 224.82 152.55 227.06 157.42 223.86 157.42 172.62 150.77 169.55 149.38 173.55" fill="#56403d"/><polygon points="149.38 169.55 149.42 175.92 152.71 176.44 149.38 169.55" fill="#56403d"/><path d="M150.91,177.11,197.21,204a3.08,3.08,0,0,0,3.18-.05l66.68-41.92a3.08,3.08,0,0,0-.18-5.31l-45-24.27a3.08,3.08,0,0,0-3,0l-68,39.27A3.08,3.08,0,0,0,150.91,177.11Z" fill="#56403d"/><path d="M205.87,127.4l33.73-19.48a1.77,1.77,0,0,1,2.66,1.54v25.75a2.81,2.81,0,0,1-1.43,2.44l-33.23,18.79a2.11,2.11,0,0,1-3.21-1.8v-24.7A2.94,2.94,0,0,1,205.87,127.4Z" fill="#6de2fc"/><path d="M261.66,155.87v47.39l3.17,2.23,4.87-3.2V155C267,155.07,264.33,155.49,261.66,155.87Z" fill="#56403d"/><polygon points="192.03 193.78 192.03 245.05 195.2 247.28 200.07 244.08 200.07 192.84 193.41 189.78 192.03 193.78" fill="#56403d"/><path d="M150.63,172.39,198.05,200a2.52,2.52,0,0,0,2.61,0l67.76-42.6a2.52,2.52,0,0,0-.14-4.36L222.2,128.09a2.52,2.52,0,0,0-2.46,0L150.64,168A2.52,2.52,0,0,0,150.63,172.39Z" fill="#ffc050"/><path d="M205.87,127.4l33.73-19.48a1.77,1.77,0,0,1,2.66,1.54v25.75a2.81,2.81,0,0,1-1.43,2.44l-33.23,18.79a2.11,2.11,0,0,1-3.21-1.8v-24.7A2.94,2.94,0,0,1,205.87,127.4Z" fill="#56403d"/><polygon points="201.76 181.99 217.33 172.71 199.03 161.91 183.01 171.19 201.76 181.99" fill="#56403d"/><polygon points="208.57 181.28 224.15 172.01 205.84 161.2 189.83 170.48 208.57 181.28" fill="#68e1fd"/><polyline points="221.28 144.09 221.28 155.11 228.92 151.01 228.92 140.18" fill="#56403d"/><ellipse cx="223.34" cy="153.42" rx="12.98" ry="3.09" transform="translate(-44.73 113.99) rotate(-26.12)" fill="#56403d"/><path d="M275.86,91.12a3.7,3.7,0,0,0,3.36,2,2.15,2.15,0,0,0,.53-.15l.26,0c2,.16,2.37-2.46,1-3.34a3.9,3.9,0,0,0-.72-1.3,1.62,1.62,0,0,0-.25-1,.54.54,0,0,0-.86-.06l-.69-.55c-.54-.42-1.07.5-.53.91a11.45,11.45,0,0,1,1.22,1,8.06,8.06,0,0,1-.48,1,3.56,3.56,0,0,0-.46,1.54,1.72,1.72,0,0,0,.19.76,2,2,0,0,1-.45-.18c-2-1.07-2.35-3.94-2-5.91.13-.67-.89-.95-1-.28A7.71,7.71,0,0,0,275.86,91.12Zm3.72.64a1.3,1.3,0,0,1-.07-1.36l.14-.31a.4.4,0,0,0,.36.32l.06,0A1.49,1.49,0,0,1,279.58,91.76Z" fill="#ff413b"/><path d="M276,59.35c-.53-.43.22-1.17.75-.75a3.8,3.8,0,0,1,.39,5.44c-.46.51-1.2-.24-.75-.75A2.75,2.75,0,0,0,276,59.35Z" fill="#ff413b"/><path d="M252.36,72.08l.3.47a3,3,0,0,0-.18,1.76,2.5,2.5,0,0,0,2.11,1.91,1.66,1.66,0,0,0,.43,0,.53.53,0,0,0,.88-.47,1.78,1.78,0,0,0,.52-1.17,3.45,3.45,0,0,0-.94-2.28,19.12,19.12,0,0,1,3.42.4c.67.14.95-.88.28-1a20.86,20.86,0,0,0-4.48-.46l.12-.16c.41-.54-.51-1.07-.91-.53-.18.23-.37.49-.54.75l-.55,0A.54.54,0,0,0,252.36,72.08Zm1.51.4.11-.2h0a4.62,4.62,0,0,1,1.14,1.43,1.51,1.51,0,0,1,.11,1Z" fill="#ff413b"/><path d="M307.44,118c.6-.31,1.14.6.53.91-1.3.67-3.35,1.72-2.88,3.52.24.91,1.06,1.36,1.85.71a4.22,4.22,0,0,0,1.05-2.06.53.53,0,0,1,1,.28,4.62,4.62,0,0,1-1.86,2.92,2,2,0,0,1-2.64-.61C302.68,121.24,305.46,119.07,307.44,118Z" fill="#ff413b"/><path d="M302,73.18c.39-.55,1.31,0,.91.53a3.22,3.22,0,1,0,5.5,3.2c.29-.62,1.2-.08.91.53A4.27,4.27,0,1,1,302,73.18Z" fill="#ff413b"/><path d="M262.91,36.47c-17.43,11.52-18.36,40.81-2.09,65.41s44.65,36.67,61,23.68c19.38-15.38,14.58-49-1.49-71.4C306.49,34.87,280.33,24.94,262.91,36.47Z" fill="#68e1fd"/><ellipse cx="287.77" cy="83.54" rx="32.79" ry="52.2" transform="translate(1.66 172.6) rotate(-33.48)" fill="#68e1fd"/><ellipse cx="287.77" cy="83.54" rx="32.79" ry="52.2" transform="translate(1.66 172.6) rotate(-33.48)" opacity="0.42"/><ellipse cx="286.93" cy="84.1" rx="26.29" ry="40.26" transform="translate(1.21 172.22) rotate(-33.48)" fill="#fff"/><path d="M269.11,57.15l15.92,31a1.5,1.5,0,0,0,1.69.69l14.62-5.8c1.77-.7,1-3.61-.8-2.89L285.93,86l1.69.69-15.92-31c-.88-1.72-3.47-.2-2.59,1.51Z" fill="#42210b"/><path d="M283.39,53.77c2.5,0,2.5,3.89,0,3.89S280.88,53.77,283.39,53.77Z" fill="#606060"/><path d="M288.35,112c2.5,0,2.5,3.89,0,3.89S285.85,112,288.35,112Z" fill="#606060"/><path d="M261.7,79.64c2.5,0,2.5,3.89,0,3.89S259.19,79.64,261.7,79.64Z" fill="#606060"/><path d="M311.35,85.39c2.5,0,2.5,3.89,0,3.89S308.84,85.39,311.35,85.39Z" fill="#606060"/><polyline points="285.67 23.5 285.67 35.58 296.66 35.58 296.66 23.5" fill="#68e1fd"/><ellipse cx="291.17" cy="35.58" rx="5.49" ry="3.38" fill="#68e1fd"/><path d="M285.67,23.5V35.58c0,1.87,2.46,3.38,5.49,3.38s5.49-1.51,5.49-3.38V23.5Z" opacity="0.42"/><ellipse cx="291.17" cy="23.5" rx="5.49" ry="3.38" fill="#68e1fd"/><path d="M307.65,38.38l-4.85,5.38h0a2.18,2.18,0,0,0,.59,2.7c.92.92,2.19,1.14,2.84.49L311,41.71Z" fill="#68e1fd"/><path d="M307.65,38.38l-4.85,5.38h0a2.18,2.18,0,0,0,.59,2.7c.92.92,2.19,1.14,2.84.49L311,41.71Z" opacity="0.42"/><ellipse cx="309.31" cy="40.05" rx="1.66" ry="2.35" transform="translate(62.28 230.45) rotate(-45)" fill="#68e1fd"/><path d="M286.32,87.42s9.76-31.74,9.79-31.71,11.5,9.51,17.11,21.67Z" fill="#36b2bf" opacity="0.37"/><path d="M172.74,171.6c.79,1,.16,3.19,4.26,5s14,2.28,12.43-1.69-9.4-5.35-9.4-5.35" fill="#5ed18d"/><path d="M174.93,162.82a77.58,77.58,0,0,0,6.06,5.46c1.48,1,7.17,2.79,6.75,4.72s-5.45-1.6-5.78-1.4-.45,1.69-3.44,2-4.26-.05-5-1-4.41-5.35-3.15-6.93S174.93,162.82,174.93,162.82Z" fill="#fbb5ad"/><path d="M211.42,114.9s4.66-4.23,6.05-6.89,2.51-.16,2.4,1.14-2.4,3.89-2.4,3.89.73,2.51.73,2.84.69,4-1.43,5.21-6.55,1.39-6.55,1.39l-.73-5.9Z" fill="#fbb5ad"/><path d="M211.59,112.89c-10.79,5.79-24.09,6.21-35.74,2.63a2.23,2.23,0,0,0-.48,0l.57,15.35c18.92,5.2,36.85-7.43,36.85-7.43C211.13,120.81,211.22,116.26,211.59,112.89Z" fill="#f47a63"/><path d="M178.16,119.26a20.91,20.91,0,0,0-5.56-6.23c-3.23,1.89-8.29,3-11.26,5.34-8.41,6.6-8,18.18-7.13,27.77.37,3.93,1.32,8.09,1.32,12a26.56,26.56,0,0,0,8.87,2.1,144.91,144.91,0,0,0,14.84-10.67C179.08,139.47,178.78,129.36,178.16,119.26Z" fill="#f47a63"/><path d="M178,106.69s.58,15.89-4.82,16.94-9.91-3.39-10.29-6.44.94-7.36.94-7.36S168.51,105.07,178,106.69Z" fill="#fbb5ad"/><path d="M179,104.05c.83-3.69-4-7-6.91-4.24a5.48,5.48,0,0,0-4.18-2c-2.27,0-3.31,1.41-3.5,3.52a4.1,4.1,0,0,0-3.56,1,3.68,3.68,0,0,0-.77,4.16,3.76,3.76,0,0,0-3,3.61,4.58,4.58,0,0,0,.4,2.3,3.51,3.51,0,0,0-.35.7,3.62,3.62,0,0,0,1,3.86,4.16,4.16,0,0,0,2.22,1.12,3.2,3.2,0,0,0,2.6,2.22,3.09,3.09,0,0,0,3.41-2.3,3,3,0,0,0,.05-1.27,7.28,7.28,0,0,0,1.24-4.84,2.68,2.68,0,0,0,.69-.19,3,3,0,0,0,1.51-1.55,4.31,4.31,0,0,0,2.16.57,2.05,2.05,0,0,0,1.74-1.07c1.71.79,4.36.55,5.57-.91A3.53,3.53,0,0,0,179,104.05Z" fill="#d86212"/><path d="M168,115.76a3.72,3.72,0,0,0-1.16-2.7,2,2,0,0,0-2.8-.23,2.24,2.24,0,0,0-.33,2.58c.52,1,1.62,1.21,2.51,1.77.53.34,1-.18.94-.68A.75.75,0,0,0,168,115.76Z" fill="#fbb5ad"/><path d="M175.72,113.17c0-.37-.58-.31-.57.05l0,2.48a6.57,6.57,0,0,1,0,1.14c-.11.66-.46.73-1,.94a.29.29,0,0,0,.2.54c.72-.28,1.3-.37,1.39-1.2A31.89,31.89,0,0,0,175.72,113.17Z" fill="#56403d"/><path d="M177.14,112.75a.29.29,0,0,0-.1.56A.29.29,0,0,0,177.14,112.75Z" fill="#56403d"/><path d="M171.37,113.62a.29.29,0,0,0-.1.56A.29.29,0,0,0,171.37,113.62Z" fill="#56403d"/><path d="M157,123.41a18.3,18.3,0,0,0-4.69,11.82c-.29,7.55,2.55,23.93,15.83,33.05,0,0,5.39-4.64,9.75-5,0,0-10.15-13.17-9.94-19.09" fill="#f47a63"/><path d="M177.41,163.24c-6.32-9.3-11.79-19.45-12.9-30.82-.06-.63-1.06-.64-1,0,1.13,11.56,6.6,21.86,13,31.32C176.9,164.27,177.77,163.77,177.41,163.24Z" fill="#56403d"/><path d="M218.37,96.57l20.4-11.78a1.07,1.07,0,0,1,1.61.93V101.3a1.7,1.7,0,0,1-.86,1.48l-20.09,11.36a1.28,1.28,0,0,1-1.94-1.09V98.11A1.78,1.78,0,0,1,218.37,96.57Z" fill="#68e1fd"/><path d="M82.32,196.92a.45.45,0,0,1,0-.66l.6-.6a.49.49,0,0,1,.3-.15q.33-.28.68-.53a31.37,31.37,0,0,1,.38-3.59.46.46,0,0,1,.09-.2L64.8,180.1c-3.37,2.23-10.63,7.61-17.87,13,6.43,5,14,8.19,21.15,12l14.19-8Z" fill="url(#linear-gradient-2)" style="mix-blend-mode:multiply"/><path d="M71,174.66c-5.16-.45-10.59-2-14.4-5.53v15.29a15.87,15.87,0,0,0,15.87,15.87h0a15.87,15.87,0,0,0,15.87-15.87V168.87C82.95,171.07,76.8,175.16,71,174.66Z" fill="#68e1fd"/><ellipse cx="72.49" cy="169.03" rx="15.87" ry="8.41" fill="#5ed18d"/><path d="M72.49,170.45s-10.79-1.59-13.64-19C58.85,151.41,68,156.49,72.49,170.45Z" fill="#5ed18d"/><path d="M74.08,168.23s-12.38-22.21,0-37.13A62.23,62.23,0,0,1,74.08,168.23Z" fill="#5ed18d"/><path d="M72.49,154.27s-10.79-1.59-13.64-19C58.85,135.23,68,140.31,72.49,154.27Z" fill="#5ed18d"/><path d="M73.8,161.38s-2.7-10.56,12.29-19.94C86.1,141.45,85,151.89,73.8,161.38Z" fill="#5ed18d"/><ellipse cx="72.49" cy="169.03" rx="15.87" ry="8.41" fill="#146666"/><path d="M72.49,170.45s-10.79-1.59-13.64-19C58.85,151.41,68,156.49,72.49,170.45Z" fill="#5ed18d"/><path d="M74.08,168.23s-12.38-22.21,0-37.13A62.23,62.23,0,0,1,74.08,168.23Z" fill="#5ed18d"/><path d="M72.49,154.27s-10.79-1.59-13.64-19C58.85,135.23,68,140.31,72.49,154.27Z" fill="#5ed18d"/><path d="M73.8,161.38s-2.7-10.56,12.29-19.94C86.1,141.45,85,151.89,73.8,161.38Z" fill="#5ed18d"/></g></g></svg>